HIERARCHY
ROOT Hips
{
	OFFSET 1.324476 86.935013 4.250773
	CHANNELS 6 Xposition Yposition Zposition Zrotation Yrotation Xrotation 
	JOINT Spine
	{
		OFFSET 0.000000 8.814246 -2.080107
		CHANNELS 3 Zrotation Yrotation Xrotation
		JOINT Spine1
		{
			OFFSET 0.000000 8.844141 -0.000000
			CHANNELS 3 Zrotation Yrotation Xrotation
			JOINT Spine2
			{
				OFFSET 0.000000 11.682268 0.000000
				CHANNELS 3 Zrotation Yrotation Xrotation
				JOINT Spine3
				{
					OFFSET 0.000000 11.746700 0.000000
					CHANNELS 3 Zrotation Yrotation Xrotation
					JOINT Neck
					{
						OFFSET -0.000000 17.658264 -0.000000
						CHANNELS 3 Zrotation Yrotation Xrotation
						JOINT Neck1
						{
							OFFSET 0.000000 5.101515 -0.000000
							CHANNELS 3 Zrotation Yrotation Xrotation
							JOINT Head
							{
								OFFSET 0.000000 5.101515 0.000000
								CHANNELS 3 Zrotation Yrotation Xrotation
								JOINT HeadEnd
								{
									OFFSET -0.000000 11.655085 0.000000
									CHANNELS 3 Zrotation Yrotation Xrotation
									End Site
									{
										OFFSET 0.000000 0.000000 0.000000
									}
								}
							}
						}
					}
					JOINT RightShoulder
					{
						OFFSET -2.625389 11.175210 -0.000000
						CHANNELS 3 Zrotation Yrotation Xrotation
						JOINT RightArm
						{
							OFFSET -0.000000 10.434715 -0.000000
							CHANNELS 3 Zrotation Yrotation Xrotation
							JOINT RightForeArm
							{
								OFFSET -0.000000 29.628420 -0.000000
								CHANNELS 3 Zrotation Yrotation Xrotation
								JOINT RightHand
								{
									OFFSET -0.000000 22.857611 -0.000000
									CHANNELS 3 Zrotation Yrotation Xrotation
									JOINT RightHandThumb1
									{
										OFFSET -2.867323 3.959563 2.944291
										CHANNELS 3 Zrotation Yrotation Xrotation
										JOINT RightHandThumb2
										{
											OFFSET -0.000000 3.350399 0.000000
											CHANNELS 3 Zrotation Yrotation Xrotation
											JOINT RightHandThumb3
											{
												OFFSET 0.000000 3.756509 -0.000000
												CHANNELS 3 Zrotation Yrotation Xrotation
												JOINT RightHandThumb4
												{
													OFFSET 0.000000 3.147345 -0.000000
													CHANNELS 3 Zrotation Yrotation Xrotation
													End Site
													{
														OFFSET 0.000000 0.000000 0.000000
													}
												}
											}
										}
									}
									JOINT RightHandIndex1
									{
										OFFSET -0.086752 10.030893 2.345280
										CHANNELS 3 Zrotation Yrotation Xrotation
										JOINT RightHandIndex2
										{
											OFFSET -0.000000 4.061090 -0.000000
											CHANNELS 3 Zrotation Yrotation Xrotation
											JOINT RightHandIndex3
											{
												OFFSET 0.000000 3.248873 0.000000
												CHANNELS 3 Zrotation Yrotation Xrotation
												JOINT RightHandIndex4
												{
													OFFSET 0.000000 2.639709 -0.000000
													CHANNELS 3 Zrotation Yrotation Xrotation
													End Site
													{
														OFFSET 0.000000 0.000000 0.000000
													}
												}
											}
										}
									}
									JOINT RightHandMiddle1
									{
										OFFSET 0.104102 9.502952 0.006768
										CHANNELS 3 Zrotation Yrotation Xrotation
										JOINT RightHandMiddle2
										{
											OFFSET 0.000000 4.568727 0.000000
											CHANNELS 3 Zrotation Yrotation Xrotation
											JOINT RightHandMiddle3
											{
												OFFSET 0.000000 3.654981 -0.000000
												CHANNELS 3 Zrotation Yrotation Xrotation
												JOINT RightHandMiddle4
												{
													OFFSET -0.000000 2.741236 -0.000000
													CHANNELS 3 Zrotation Yrotation Xrotation
													End Site
													{
														OFFSET 0.000000 0.000000 0.000000
													}
												}
											}
										}
									}
									JOINT RightHandRing1
									{
										OFFSET 0.086752 8.921708 -2.267442
										CHANNELS 3 Zrotation Yrotation Xrotation
										JOINT RightHandRing2
										{
											OFFSET -0.000000 4.061090 0.000000
											CHANNELS 3 Zrotation Yrotation Xrotation
											JOINT RightHandRing3
											{
												OFFSET -0.000000 3.654981 -0.000000
												CHANNELS 3 Zrotation Yrotation Xrotation
												JOINT RightHandRing4
												{
													OFFSET -0.000000 2.741236 -0.000000
													CHANNELS 3 Zrotation Yrotation Xrotation
													End Site
													{
														OFFSET 0.000000 0.000000 0.000000
													}
												}
											}
										}
									}
									JOINT RightHandPinky1
									{
										OFFSET -0.173504 7.976997 -4.467199
										CHANNELS 3 Zrotation Yrotation Xrotation
										JOINT RightHandPinky2
										{
											OFFSET -0.000000 3.350399 -0.000000
											CHANNELS 3 Zrotation Yrotation Xrotation
											JOINT RightHandPinky3
											{
												OFFSET -0.000000 2.842763 -0.000000
												CHANNELS 3 Zrotation Yrotation Xrotation
												JOINT RightHandPinky4
												{
													OFFSET 0.000000 2.639709 0.000000
													CHANNELS 3 Zrotation Yrotation Xrotation
													End Site
													{
														OFFSET 0.000000 0.000000 0.000000
													}
												}
											}
										}
									}
									JOINT RightForeArmEnd
									{
										OFFSET 0.000000 0.000000 0.000000
										CHANNELS 3 Zrotation Yrotation Xrotation
										End Site
										{
											OFFSET 0.000000 0.000000 0.000000
										}
									}
								}
								JOINT RightArmEnd
								{
									OFFSET 0.000000 0.000000 0.000000
									CHANNELS 3 Zrotation Yrotation Xrotation
									End Site
									{
										OFFSET 0.000000 0.000000 0.000000
									}
								}
							}
						}
					}
					JOINT LeftShoulder
					{
						OFFSET 2.625389 11.175210 -0.000000
						CHANNELS 3 Zrotation Yrotation Xrotation
						JOINT LeftArm
						{
							OFFSET 0.000000 10.813635 0.000000
							CHANNELS 3 Zrotation Yrotation Xrotation
							JOINT LeftForeArm
							{
								OFFSET 0.000000 28.724781 -0.000000
								CHANNELS 3 Zrotation Yrotation Xrotation
								JOINT LeftHand
								{
									OFFSET 0.644384 25.716167 -0.328871
									CHANNELS 3 Zrotation Yrotation Xrotation
									JOINT LeftHandThumb1
									{
										OFFSET 2.867323 3.959563 2.944291
										CHANNELS 3 Zrotation Yrotation Xrotation
										JOINT LeftHandThumb2
										{
											OFFSET -0.000000 3.350399 -0.000000
											CHANNELS 3 Zrotation Yrotation Xrotation
											JOINT LeftHandThumb3
											{
												OFFSET -0.000000 3.756509 0.000000
												CHANNELS 3 Zrotation Yrotation Xrotation
												JOINT LeftHandThumb4
												{
													OFFSET 0.000000 3.100000 -0.000000
													CHANNELS 3 Zrotation Yrotation Xrotation
													End Site
													{
														OFFSET 0.000000 0.000000 0.000000
													}
												}
											}
										}
									}
									JOINT LeftHandIndex1
									{
										OFFSET 0.086752 10.030893 2.345280
										CHANNELS 3 Zrotation Yrotation Xrotation
										JOINT LeftHandIndex2
										{
											OFFSET 0.000000 4.061090 -0.000000
											CHANNELS 3 Zrotation Yrotation Xrotation
											JOINT LeftHandIndex3
											{
												OFFSET 0.000000 3.248873 -0.000000
												CHANNELS 3 Zrotation Yrotation Xrotation
												JOINT LeftHandIndex4
												{
													OFFSET -0.000000 2.639709 0.000000
													CHANNELS 3 Zrotation Yrotation Xrotation
													End Site
													{
														OFFSET 0.000000 0.000000 0.000000
													}
												}
											}
										}
									}
									JOINT LeftHandMiddle1
									{
										OFFSET -0.104102 9.502952 0.006768
										CHANNELS 3 Zrotation Yrotation Xrotation
										JOINT LeftHandMiddle2
										{
											OFFSET 0.000000 4.568727 -0.000000
											CHANNELS 3 Zrotation Yrotation Xrotation
											JOINT LeftHandMiddle3
											{
												OFFSET 0.000000 3.654981 -0.000000
												CHANNELS 3 Zrotation Yrotation Xrotation
												JOINT LeftHandMiddle4
												{
													OFFSET -0.000000 2.741236 0.000000
													CHANNELS 3 Zrotation Yrotation Xrotation
													End Site
													{
														OFFSET 0.000000 0.000000 0.000000
													}
												}
											}
										}
									}
									JOINT LeftHandRing1
									{
										OFFSET -0.086752 8.921708 -2.267442
										CHANNELS 3 Zrotation Yrotation Xrotation
										JOINT LeftHandRing2
										{
											OFFSET 0.000000 4.061090 -0.000000
											CHANNELS 3 Zrotation Yrotation Xrotation
											JOINT LeftHandRing3
											{
												OFFSET 0.000000 3.654981 -0.000000
												CHANNELS 3 Zrotation Yrotation Xrotation
												JOINT LeftHandRing4
												{
													OFFSET 0.000000 2.741236 0.000000
													CHANNELS 3 Zrotation Yrotation Xrotation
													End Site
													{
														OFFSET 0.000000 0.000000 0.000000
													}
												}
											}
										}
									}
									JOINT LeftHandPinky1
									{
										OFFSET 0.173504 7.976997 -4.467199
										CHANNELS 3 Zrotation Yrotation Xrotation
										JOINT LeftHandPinky2
										{
											OFFSET 0.000000 3.350399 -0.000000
											CHANNELS 3 Zrotation Yrotation Xrotation
											JOINT LeftHandPinky3
											{
												OFFSET -0.000000 2.842763 0.000000
												CHANNELS 3 Zrotation Yrotation Xrotation
												JOINT LeftHandPinky4
												{
													OFFSET 0.000000 2.639709 -0.000000
													CHANNELS 3 Zrotation Yrotation Xrotation
													End Site
													{
														OFFSET 0.000000 0.000000 0.000000
													}
												}
											}
										}
									}
									JOINT LeftForeArmEnd
									{
										OFFSET 0.000000 0.000000 0.000000
										CHANNELS 3 Zrotation Yrotation Xrotation
										End Site
										{
											OFFSET 0.000000 0.000000 0.000000
										}
									}
								}
								JOINT LeftArmEnd
								{
									OFFSET 0.000000 0.000000 0.000000
									CHANNELS 3 Zrotation Yrotation Xrotation
									End Site
									{
										OFFSET 0.000000 0.000000 0.000000
									}
								}
							}
						}
					}
				}
			}
		}
	}
	JOINT RightUpLeg
	{
		OFFSET -11.289943 -0.000000 0.000000
		CHANNELS 3 Zrotation Yrotation Xrotation
		JOINT RightLeg
		{
			OFFSET -0.000000 -38.200325 -0.000000
			CHANNELS 3 Zrotation Yrotation Xrotation
			JOINT RightFoot
			{
				OFFSET -0.000000 -39.900856 0.000000
				CHANNELS 3 Zrotation Yrotation Xrotation
				JOINT RightToeBase
				{
					OFFSET 0.000000 0.000000 15.261641
					CHANNELS 3 Zrotation Yrotation Xrotation
					JOINT RightToeBaseEnd
					{
						OFFSET 0.000000 -0.000000 7.370709
						CHANNELS 3 Zrotation Yrotation Xrotation
						End Site
						{
							OFFSET 0.000000 0.000000 0.000000
						}
					}
				}
				JOINT RightLegEnd
				{
					OFFSET 0.000000 0.000000 0.000000
					CHANNELS 3 Zrotation Yrotation Xrotation
					End Site
					{
						OFFSET 0.000000 0.000000 0.000000
					}
				}
			}
			JOINT RightUpLegEnd
			{
				OFFSET 0.000000 0.000000 0.000000
				CHANNELS 3 Zrotation Yrotation Xrotation
				End Site
				{
					OFFSET 0.000000 0.000000 0.000000
				}
			}
		}
	}
	JOINT LeftUpLeg
	{
		OFFSET 11.315661 0.000000 -0.000000
		CHANNELS 3 Zrotation Yrotation Xrotation
		JOINT LeftLeg
		{
			OFFSET -0.000000 -38.200325 0.000000
			CHANNELS 3 Zrotation Yrotation Xrotation
			JOINT LeftFoot
			{
				OFFSET -0.000000 -39.900856 0.000000
				CHANNELS 3 Zrotation Yrotation Xrotation
				JOINT LeftToeBase
				{
					OFFSET -0.000000 0.000000 15.261641
					CHANNELS 3 Zrotation Yrotation Xrotation
					JOINT LeftToeBaseEnd
					{
						OFFSET -0.000000 0.000000 7.539996
						CHANNELS 3 Zrotation Yrotation Xrotation
						End Site
						{
							OFFSET 0.000000 0.000000 0.000000
						}
					}
				}
				JOINT LeftLegEnd
				{
					OFFSET 0.000000 0.000000 0.000000
					CHANNELS 3 Zrotation Yrotation Xrotation
					End Site
					{
						OFFSET 0.000000 0.000000 0.000000
					}
				}
			}
			JOINT LeftUpLegEnd
			{
				OFFSET 0.000000 0.000000 0.000000
				CHANNELS 3 Zrotation Yrotation Xrotation
				End Site
				{
					OFFSET 0.000000 0.000000 0.000000
				}
			}
		}
	}
}
MOTION
Frames: 4
Frame Time: 0.016667
0.001032 85.536385 6.381549 -1.110070 -4.863400 -14.965425 -0.223346 0.214123 9.297061 5.695837 -1.496580 -3.761508 -3.653064 0.675697 19.328070 0.616128 -0.714725 -1.729805 7.026147 1.758418 11.242895 -3.144683 1.251793 -7.324147 -0.297212 3.480626 -25.867239 0.000000 0.000000 0.000000 98.348389 -1.008356 4.455064 56.712605 -44.187378 7.802029 1.413648 16.385569 31.897423 5.569729 16.913017 -11.012528 9.613333 -1.745733 40.228252 -0.000006 0.000049 -23.465651 0.000005 0.000073 -16.240282 0.000015 0.000002 -0.000051 11.474731 0.216702 -9.134297 7.858709 -0.067682 0.110643 7.801208 -0.035435 0.039967 -0.000007 0.000026 -0.000038 11.982658 0.069268 -11.272561 8.300766 -0.039150 0.036263 8.253104 -0.010106 0.034967 -0.000003 -0.000005 -0.000007 13.573307 -0.129204 -12.518023 9.753254 0.076473 -0.030541 9.608429 0.014768 -0.035697 -0.000017 0.000068 0.000015 14.744648 -0.398562 -15.266011 10.427765 0.168132 -0.056252 10.483176 0.025975 -0.075588 -0.000102 -0.000012 -0.000004 0.000000 0.000000 0.000000 0.000000 0.000000 0.000000 -95.325943 0.728159 4.536999 -56.357494 45.130409 1.878924 -1.685988 -7.626945 49.420124 -3.904283 -19.785908 -16.847206 -8.846989 1.666672 40.532604 0.000006 0.000056 -21.806223 -0.000062 -0.000032 -14.936076 -0.000293 -0.000003 -0.000144 -13.728977 0.229446 -13.649366 -8.707585 -0.039596 0.094853 -8.748116 -0.000442 0.077087 -0.000003 0.001410 -0.000015 -14.312756 0.107257 -14.953336 -9.338607 -0.029299 0.027675 -9.205743 0.000313 0.027160 -0.001777 -0.000072 -0.000182 -15.736594 -0.064222 -13.973535 -10.568480 0.068881 -0.051729 -10.582848 0.004198 -0.050490 0.000651 0.000011 0.000006 -16.338984 -0.332403 -13.631710 -11.246491 0.111419 -0.142671 -11.132950 -0.003613 -0.127519 -0.001054 0.000007 -0.000057 0.000000 0.000000 0.000000 0.000000 0.000000 0.000000 -2.833135 -3.165706 19.299284 -0.202754 -0.973237 9.627911 -1.105854 -10.557049 14.793086 -0.572888 -0.766719 -27.802696 0.000000 0.000000 0.000000 0.000000 0.000000 0.000000 0.000000 0.000000 0.000000 9.325898 7.134047 18.431631 0.234994 1.091185 13.243111 -1.453600 6.228697 11.626734 0.435411 0.355487 -27.355988 0.000000 0.000000 0.000000 0.000000 0.000000 0.000000 0.000000 0.000000 0.000000 
-0.007507 85.535599 6.372527 -1.117203 -4.863533 -14.963631 -0.218478 0.213495 9.295710 5.686820 -1.495805 -3.773826 -3.637128 0.666047 19.350216 0.616605 -0.716399 -1.728504 7.030595 1.763139 11.226812 -3.143556 1.255628 -7.338151 -0.298702 3.480907 -25.862396 0.000000 0.000000 0.000000 98.350777 -1.010054 4.454214 56.706081 -44.189198 7.818128 1.412637 16.386337 31.895782 5.569599 16.900652 -11.024343 9.613458 -1.745919 40.228031 -0.000006 0.000049 -23.467077 0.000005 0.000073 -16.241549 0.000015 0.000002 -0.000051 11.469966 0.216806 -9.143380 7.857906 -0.067686 0.109726 7.801074 -0.035323 0.039389 -0.000007 0.000026 -0.000039 11.980339 0.069326 -11.279137 8.301886 -0.039157 0.036041 8.254322 -0.010136 0.034821 -0.000004 -0.000004 -0.000007 13.576582 -0.129312 -12.518414 9.757769 0.076524 -0.030381 9.611878 0.014772 -0.035620 -0.000017 0.000076 0.000015 14.748370 -0.399053 -15.264680 10.431316 0.168139 -0.055940 10.486108 0.025955 -0.075377 -0.000097 -0.000012 -0.000004 0.000000 0.000000 0.000000 0.000000 0.000000 0.000000 -95.326523 0.728518 4.540424 -56.358192 45.129807 1.873233 -1.686593 -7.640496 49.426418 -3.885368 -19.801590 -16.867035 -8.844014 1.666235 40.533928 0.000007 0.000056 -21.800236 -0.000062 -0.000032 -14.932446 -0.000282 -0.000003 -0.000125 -13.721223 0.229432 -13.658302 -8.708748 -0.039738 0.094843 -8.749434 -0.000509 0.077014 -0.000003 0.001419 -0.000015 -14.307799 0.107316 -14.958920 -9.338908 -0.029353 0.027564 -9.206457 0.000285 0.027052 -0.001775 -0.000072 -0.000181 -15.735174 -0.064351 -13.975136 -10.567511 0.069003 -0.051420 -10.581446 0.004258 -0.050235 0.000659 0.000011 0.000006 -16.344013 -0.333217 -13.632634 -11.246175 0.111708 -0.141369 -11.132801 -0.003393 -0.126457 -0.001057 0.000007 -0.000057 0.000000 0.000000 0.000000 0.000000 0.000000 0.000000 -2.818452 -3.163851 19.303047 -0.202586 -0.972780 9.616337 -1.112999 -10.555253 14.799441 -0.573043 -0.767559 -27.805601 0.000000 0.000000 0.000000 0.000000 0.000000 0.000000 0.000000 0.000000 0.000000 9.338729 7.134861 18.430826 0.235297 1.092149 13.251470 -1.451871 6.214283 11.625511 0.434531 0.356363 -27.362789 0.000000 0.000000 0.000000 0.000000 0.000000 0.000000 0.000000 0.000000 0.000000 
-0.016121 85.534790 6.363227 -1.124750 -4.862257 -14.961535 -0.213123 0.212853 9.294059 5.677385 -1.494825 -3.785392 -3.620459 0.657127 19.372990 0.617027 -0.717641 -1.726796 7.035396 1.767884 11.209896 -3.142453 1.258989 -7.352706 -0.299851 3.481216 -25.857447 0.000000 0.000000 0.000000 98.352211 -1.012161 4.453708 56.700726 -44.192036 7.833800 1.411619 16.388271 31.895756 5.563432 16.889475 -11.041462 9.613235 -1.746083 40.227947 -0.000006 0.000049 -23.467716 0.000005 0.000073 -16.242331 0.000015 0.000002 -0.000051 11.461576 0.216885 -9.151711 7.855980 -0.067739 0.109015 7.799760 -0.035258 0.039027 -0.000007 0.000026 -0.000039 11.974464 0.069383 -11.285008 8.301788 -0.039182 0.035891 8.254230 -0.010181 0.034730 -0.000004 -0.000003 -0.000007 13.577029 -0.129419 -12.517981 9.760722 0.076587 -0.030303 9.613824 0.014783 -0.035608 -0.000017 0.000085 0.000015 14.750102 -0.399549 -15.261951 10.433440 0.168141 -0.055735 10.487709 0.025949 -0.075255 -0.000092 -0.000012 -0.000004 0.000000 0.000000 0.000000 0.000000 0.000000 0.000000 -95.325478 0.728678 4.543359 -56.357719 45.130547 1.870150 -1.687521 -7.653423 49.432339 -3.860373 -19.817373 -16.890884 -8.840192 1.665716 40.535622 0.000007 0.000056 -21.792290 -0.000062 -0.000032 -14.927397 -0.000270 -0.000003 -0.000107 -13.709886 0.229383 -13.666991 -8.708928 -0.039877 0.094841 -8.749842 -0.000577 0.076917 -0.000003 0.001428 -0.000015 -14.299283 0.107359 -14.963549 -9.338228 -0.029407 0.027449 -9.206246 0.000258 0.026943 -0.001773 -0.000072 -0.000180 -15.730958 -0.064473 -13.975294 -10.565571 0.069121 -0.051134 -10.578895 0.004315 -0.049990 0.000668 0.000011 0.000006 -16.347191 -0.334041 -13.631546 -11.244798 0.111959 -0.140255 -11.131739 -0.003200 -0.125500 -0.001059 0.000007 -0.000057 0.000000 0.000000 0.000000 0.000000 0.000000 0.000000 -2.804029 -3.163238 19.307865 -0.202400 -0.972341 9.603329 -1.119378 -10.553369 14.805848 -0.573187 -0.768354 -27.808716 0.000000 0.000000 0.000000 0.000000 0.000000 0.000000 0.000000 0.000000 0.000000 9.351249 7.134859 18.429733 0.235594 1.093158 13.259734 -1.449425 6.199037 11.624095 0.433706 0.357239 -27.370008 0.000000 0.000000 0.000000 0.000000 0.000000 0.000000 0.000000 0.000000 0.000000 
-0.024805 85.533966 6.353671 -1.132565 -4.859697 -14.959250 -0.207412 0.212194 9.292229 5.667651 -1.493681 -3.796293 -3.603338 0.648992 19.396172 0.617294 -0.718471 -1.724805 7.040593 1.772386 11.192417 -3.141344 1.261711 -7.367547 -0.300614 3.481555 -25.852545 0.000000 0.000000 0.000000 98.352631 -1.014539 4.453704 56.696159 -44.195965 7.849015 1.410589 16.391073 31.897160 5.552707 16.879295 -11.063204 9.612707 -1.746220 40.227989 -0.000006 0.000049 -23.467663 0.000005 0.000073 -16.242714 0.000015 0.000002 -0.000051 11.450035 0.216937 -9.158823 7.853245 -0.067827 0.108508 7.797561 -0.035231 0.038875 -0.000007 0.000025 -0.000039 11.965376 0.069440 -11.289788 8.300726 -0.039220 0.035809 8.253075 -0.010237 0.034692 -0.000004 -0.000002 -0.000007 13.574855 -0.129525 -12.516481 9.762262 0.076654 -0.030306 9.614429 0.014798 -0.035663 -0.000017 0.000094 0.000015 14.750047 -0.400032 -15.257692 10.434332 0.168129 -0.055631 10.488161 0.025945 -0.075217 -0.000087 -0.000012 -0.000004 0.000000 0.000000 0.000000 0.000000 0.000000 0.000000 -95.322723 0.728602 4.545961 -56.356438 45.132755 1.869152 -1.688684 -7.665185 49.437031 -3.830693 -19.833525 -16.918051 -8.835658 1.665135 40.537666 0.000007 0.000056 -21.782623 -0.000062 -0.000032 -14.921064 -0.000258 -0.000003 -0.000091 -13.694995 0.229317 -13.674975 -8.708123 -0.040006 0.094854 -8.749363 -0.000635 0.076800 -0.000003 0.001438 -0.000015 -14.287185 0.107384 -14.966882 -9.336588 -0.029459 0.027338 -9.205118 0.000236 0.026840 -0.001770 -0.000072 -0.000179 -15.723955 -0.064588 -13.973837 -10.562681 0.069225 -0.050884 -10.575233 0.004364 -0.049765 0.000676 0.000011 0.000006 -16.348402 -0.334867 -13.628454 -11.242356 0.112160 -0.139386 -11.129745 -0.003052 -0.124691 -0.001060 0.000007 -0.000057 0.000000 0.000000 0.000000 0.000000 0.000000 0.000000 -2.790068 -3.163740 19.313524 -0.202201 -0.971923 9.589227 -1.125017 -10.551515 14.812246 -0.573328 -0.769078 -27.811949 0.000000 0.000000 0.000000 0.000000 0.000000 0.000000 0.000000 0.000000 0.000000 9.363275 7.134130 18.428535 0.235876 1.094175 13.267613 -1.446388 6.183383 11.622561 0.432960 0.358123 -27.377426 0.000000 0.000000 0.000000 0.000000 0.000000 0.000000 0.000000 0.000000 0.000000 
